PathFileType	4	(X/Y/Z)	70_1_30_p1_0-258_filt_butterworth.trc
DataRate	CameraRate	NumFrames	NumMarkers	Units	OrigDataRate	OrigDataStartFrame	OrigNumFrames
60.0	60.0	6	27	m	60.0	32	258
Frame#	Time	RHip			RKnee			RAnkle			RBigToe			RSmallToe			RHeel			LHip			LKnee			LAnkle			LBigToe			LSmallToe			LHeel			Neck			Head			Nose			RShoulder			RElbow			RWrist			RThumb			RIndex			RPinky			LShoulder			LElbow			LWrist			LThumb			LIndex			LPinky			
		X1	Y1	Z1	X2	Y2	Z2	X3	Y3	Z3	X4	Y4	Z4	X5	Y5	Z5	X6	Y6	Z6	X7	Y7	Z7	X8	Y8	Z8	X9	Y9	Z9	X10	Y10	Z10	X11	Y11	Z11	X12	Y12	Z12	X13	Y13	Z13	X14	Y14	Z14	X15	Y15	Z15	X16	Y16	Z16	X17	Y17	Z17	X18	Y18	Z18	X19	Y19	Z19	X20	Y20	Z20	X21	Y21	Z21	X22	Y22	Z22	X23	Y23	Z23	X24	Y24	Z24	X25	Y25	Z25	X26	Y26	Z26	X27	Y27	Z27	
32	0.5333333333333333	0.3756718720578444	0.6332219138160581	0.8045493679420552	0.3675202925179684	0.21537444540867576	0.8015029625784158	0.36260111856475563	-0.2109008091809016	0.7466421554884585	0.3272686078718396	-0.2397706782408046	0.6090784615773334	0.3975397538059633	-0.22536928979280063	0.5989285082021762	0.3635592496974314	-0.2580942952384364	0.7871987315717698	0.12729039222540567	0.6011738052206314	0.8782455413652721	0.14653515221263433	0.18707421296515608	0.8363885328030649	0.17118156459797138	-0.2264979855462187	0.768412490807357	0.16556368376407743	-0.20901619634530907	0.6057652425059932	0.10842363507830312	-0.23225341495439863	0.665951521512111	0.19397918509093753	-0.26535132351762203	0.7839253310787979	0.2401289500388209	1.2269217708483233	0.8724639972287009	0.21305855182711753	1.4898711321660811	0.8578020266304369	0.197892311691733	1.3535232625226652	0.7808364932133697	0.4060924989188557	1.1444522698054898	0.8124137642848527	0.46878355236755026	0.8642291549124584	0.7820920013456976	0.3797757794773635	0.7054860624664887	0.6215837206899373	0.27961276044244315	0.6142861264867066	0.5934733674984773	0.2917655885007462	0.5930132854491028	0.6082066512362228	0.35244111361757513	0.5872727049181281	0.5980771641840974	0.0672050359891037	1.1152709712417985	0.8930171191240097	0.021346733732771628	0.8517860165267884	0.8510206684252446	0.03638170330431466	0.6456361580013656	0.7347841219182357	0.10928475839720683	0.5866406749213793	0.6703914698469404	0.08629954841562407	0.574706095768756	0.6309409029544881	0.03746046613365675	0.5307052298415504	0.693078107617119	
33	0.55	0.37555029969932113	0.6316384970935891	0.8049317595324752	0.3666179760965015	0.21649765769586002	0.8007894543279425	0.36256010940217215	-0.21108159292029974	0.7463579554223126	0.327253205478782	-0.23976216635471595	0.6091233937337541	0.3961073975403725	-0.22229716897767535	0.5964876674507444	0.3636579508130839	-0.2575097799111244	0.7860095299830063	0.12754357034267072	0.6009898227661703	0.8765700932716836	0.14651970152399918	0.18776124555148832	0.8362063860437599	0.17127739415523321	-0.22687748715401485	0.768426383043719	0.16554663519270957	-0.20905994041015605	0.6057679745179192	0.1084039407706976	-0.23230052087232125	0.665976528214576	0.1942234205953708	-0.2651772385421856	0.7837102881661542	0.2400655092674135	1.2274913099206557	0.8723894337900473	0.21374794940224795	1.4895599727207454	0.8577886725468868	0.19858956691624607	1.3536130240192359	0.7806156231982035	0.40689545233814883	1.1433685319410958	0.814197558660257	0.4698503148702968	0.8635415177232806	0.7842716393742343	0.37720796511978083	0.7091143758925317	0.6184005150958125	0.2787322325598644	0.6147120361039864	0.5959524513985186	0.29123494635805997	0.5954697405693996	0.6076877062799071	0.35111594296642945	0.5886314110814381	0.5997800463207215	0.06762799194460317	1.1153808603413404	0.8931710087767579	0.022172979339675006	0.8506452488015059	0.8540704625702495	0.0371975612477819	0.6431270839793284	0.7407492513976028	0.10870210125268573	0.5844614774001288	0.6717047442337967	0.0824493486569363	0.5732489085209184	0.6305563357083703	0.03585839561835048	0.5269986306003619	0.7022578955616705	
34	0.5666666666666667	0.37550755927624047	0.6295699233373371	0.8053586835477162	0.36563991011447416	0.21745609631138393	0.7999527372326816	0.3624331229448916	-0.21109556492222917	0.7459170953836728	0.3272334057316979	-0.23974439523222338	0.6091508009828497	0.39462471133652477	-0.21901505067679122	0.5938626316113196	0.3637473211007364	-0.25717107556718094	0.7851084960332066	0.1281060178106535	0.6003235234784704	0.8752956903159059	0.14658468237823416	0.1882398739674399	0.8357821627703393	0.17138586271001963	-0.22732233863888524	0.7684678030551781	0.16558676885384882	-0.20919895314782813	0.6058868627704258	0.10837682082990319	-0.23233191241243217	0.665978788043971	0.19458568075615593	-0.26509087565102624	0.7836243499525773	0.24005083656763626	1.2278529068916866	0.8723651768693106	0.21418501586218103	1.4895602814698767	0.8566730991364943	0.1996146897941084	1.3538975027458455	0.779617874231668	0.40743447698763546	1.1424615962555433	0.8146677941542178	0.4707474904922979	0.8631468445478224	0.7863424109062522	0.3742562266577196	0.7132068537646088	0.6143122195243906	0.27762450485016565	0.616226061253357	0.5978081021769599	0.2908013371579714	0.5984858583202002	0.6069331259435142	0.34969078288376065	0.588825210128369	0.6038607098437296	0.06778257829613639	1.1155115569803007	0.8932830994949592	0.02244685449286117	0.8492526362435382	0.858318312875417	0.0383577379707456	0.6405635764352363	0.7471368332542891	0.10780817094857782	0.5821669850343634	0.672767536433562	0.07858035788684117	0.572057733751189	0.6304193463277504	0.03502094935944272	0.5256812379749646	0.7083602913176837	
35	0.5833333333333334	0.3755530183979198	0.627271121618073	0.8056397114988421	0.3646344061163866	0.21821555488886094	0.7990067925254634	0.36229351916708114	-0.21105944616615446	0.7454538957870904	0.32720884240429426	-0.23971956636849726	0.6091645058147294	0.39329654987334745	-0.21595666358564705	0.591429172585255	0.36388681619390534	-0.25713504021748884	0.7846316056874556	0.12881008046522208	0.599462756719959	0.8740032206923645	0.14673416764254912	0.18843282953037022	0.8351795223057421	0.17149709089560952	-0.22780968060545417	0.7685137602478546	0.16569405122941266	-0.20944515767024635	0.606144672358591	0.10834673716336862	-0.2323430145641289	0.6659565056534428	0.19503703631803904	-0.2651837046051817	0.7836669321514032	0.2400905539941765	1.2278276602152287	0.8723545287342649	0.21436873267207468	1.4898179991962326	0.8547321527834566	0.2008460405641716	1.3543703962017615	0.7778602075802197	0.4077338859324515	1.1419380392456762	0.8135085525032806	0.4714584185723674	0.8631438138504546	0.7879740766907892	0.3714969897516006	0.7171009353366044	0.6102136075215034	0.27638804189264177	0.6190631235853967	0.5987252568741861	0.29025139803942246	0.602447171908117	0.6055164083773085	0.34766286800234725	0.5882437894207957	0.6098477876939504	0.06776232679893329	1.1155942750290246	0.8933565585624221	0.022192204199871127	0.8474352147157934	0.8641437704041492	0.039603571178773195	0.6379800764101062	0.7535557772779437	0.1063749133305296	0.5803652568265389	0.6732545815364415	0.07483272039917074	0.5715806605742072	0.6302391984225472	0.034913897832619924	0.5259831859985011	0.7121042244728912	
36	0.6	0.3756331748181558	0.624961747953864	0.805600246633984	0.3636597807562127	0.21881303071866148	0.7979820314812038	0.3622103181718087	-0.2111290277368517	0.745077105531502	0.3271818071794207	-0.23969692374302679	0.6091731381860205	0.3922101071739269	-0.21357809994304486	0.5895481053935372	0.36406433355774115	-0.25743055318525426	0.7845737709022697	0.12938841351791866	0.5987698035176652	0.8721510351763597	0.14696441055303194	0.1882860767344891	0.8344473232147335	0.17159158690603216	-0.22827550991508946	0.7685357642414347	0.16578022619626576	-0.209635389872141	0.6063478073388175	0.10831781678441021	-0.232338738680148	0.6659244664334935	0.19550827041745933	-0.2654302782306373	0.7837595831467697	0.2401761703596505	1.2273517472866113	0.8723435189870649	0.21440424727050406	1.4901976449084693	0.8525269990434748	0.2021195080159769	1.3549151012435072	0.7755824533945046	0.4079147780983344	1.141840253163332	0.8110618096125877	0.472057585432252	0.863539476696387	0.7889406672809964	0.36934698422010825	0.7205030585682988	0.6066794588782547	0.27516991352379844	0.6234542326057694	0.5986107037411634	0.28930379185330674	0.6077298078378179	0.6032382872944282	0.3444402029479436	0.5873510728418592	0.6169165610448157	0.0677084621796733	1.1156255573668203	0.8934265259165766	0.021529714648834106	0.8451942220915531	0.8715155457231846	0.040639135360150735	0.6355270763456038	0.759640066016762	0.10442631465694047	0.5798399479800757	0.6728095284788997	0.07151586427164824	0.5721183509072015	0.6299842111943803	0.035412979988556664	0.5268677768150481	0.7145162911989886	
37	0.6166666666666667	0.3756869781814919	0.6227564402469068	0.8051362814606182	0.3627700790721551	0.2193343712302143	0.7968478138222169	0.362196405134643	-0.2113796237583954	0.7447922021419061	0.3271569802921045	-0.23968374613811363	0.6091781497740822	0.3913558304578969	-0.21223868940203877	0.5884893615110899	0.364218678887088	-0.25806005905700724	0.7848348900601075	0.12971017376751612	0.5984186431895874	0.8694218843062151	0.14727071469413297	0.1877672497849412	0.8336041308973301	0.17165103670511897	-0.2286257275333506	0.7685266459862532	0.16567986097634868	-0.20946446221219328	0.6061306675897677	0.10829722703971753	-0.23233159443646895	0.6659050895240658	0.19594862245946904	-0.265712288895242	0.7838549263293768	0.24027152366345847	1.2264792305019063	0.8723193242016605	0.21442076539263774	1.490536027137876	0.8506879144610568	0.2032587904622453	1.3553505845611133	0.7730972135189458	0.4081239560788389	1.1421151814396038	0.8080534015971278	0.47259395461205644	0.8642905941258415	0.789265396876625	0.3679622276355007	0.7234319628295801	0.6039286762847775	0.274015825907862	0.629654112426149	0.5975992057196569	0.28773010074791827	0.6145221042438698	0.6003865878601468	0.3397241861963828	0.5870034959467753	0.6238867304714801	0.06769779689083887	1.1156218475322188	0.8935230287240574	0.020568636754966153	0.8428966416039168	0.8797724355166954	0.041290639863357084	0.633313978519893	0.7652644531142476	0.10227570083420567	0.5809271290741986	0.6714394731698812	0.0688143839616242	0.5735718716015632	0.6297880157422353	0.03639364798625646	0.5273868947541333	0.7167530114762236	
